<svg width="23" height="9" viewBox="0 0 23 9" fill="none" xmlns="http://www.w3.org/2000/svg">
<path d="M5.8595 6.956V8H0.9635L2.8115 5.66C3.6915 4.572 4.2075 3.892 4.3595 3.62C4.5195 3.34 4.5995 3.112 4.5995 2.936C4.6075 2.888 4.6115 2.84 4.6115 2.792C4.6115 2.472 4.5035 2.188 4.2875 1.94C4.0795 1.692 3.8035 1.568 3.4595 1.568C3.1155 1.568 2.8435 1.708 2.6435 1.988C2.4515 2.268 2.3555 2.608 2.3555 3.008H1.0595C1.0595 2.288 1.2715 1.696 1.6955 1.232C2.1275 0.76 2.7115 0.524 3.4475 0.524C4.1115 0.524 4.6715 0.748 5.1275 1.196C5.5835 1.644 5.8115 2.204 5.8115 2.876C5.8115 3.508 5.3275 4.388 4.3595 5.516L3.1235 6.956H5.8595ZM11.6656 4.364C11.6656 5.42 11.4336 6.324 10.9696 7.076C10.5056 7.82 9.86563 8.192 9.04963 8.192C8.24163 8.192 7.60563 7.816 7.14163 7.064C6.67763 6.312 6.44563 5.412 6.44563 4.364C6.44563 3.276 6.67763 2.364 7.14163 1.628C7.61363 0.892 8.25363 0.524 9.06163 0.524C9.86963 0.524 10.5056 0.9 10.9696 1.652C11.4336 2.396 11.6656 3.3 11.6656 4.364ZM7.64563 4.352C7.64563 5.088 7.77363 5.74 8.02962 6.308C8.28563 6.868 8.63363 7.148 9.07363 7.148C9.51363 7.148 9.85363 6.884 10.0936 6.356C10.3416 5.828 10.4656 5.16 10.4656 4.352C10.4656 3.608 10.3376 2.96 10.0816 2.408C9.82563 1.848 9.48163 1.568 9.04963 1.568C8.62563 1.568 8.28563 1.86 8.02962 2.444C7.77363 3.02 7.64563 3.656 7.64563 4.352ZM13.2478 1.76V0.715999H15.5278V8H14.2918V1.76H13.2478ZM19.9179 1.76L19.6299 3.068L20.1939 3.044C20.8899 3.044 21.4539 3.292 21.8859 3.788C22.3259 4.276 22.5459 4.872 22.5459 5.576C22.5459 6.36 22.3019 6.992 21.8139 7.472C21.3259 7.952 20.6859 8.192 19.8939 8.192C19.0139 8.192 18.2939 7.872 17.7339 7.232L18.0939 6.176C18.5579 6.824 19.1259 7.148 19.7979 7.148C20.2139 7.148 20.5659 7.004 20.8539 6.716C21.1499 6.42 21.2979 6.024 21.2979 5.528C21.2979 5.024 21.1459 4.632 20.8419 4.352C20.5379 4.072 20.1539 3.932 19.6899 3.932C19.2259 3.932 18.8459 4.092 18.5499 4.412H18.3219L19.0779 0.715999H22.2459V1.76H19.9179Z" fill="white"/>
</svg>
